<svg width="280" height="280" viewBox="0 0 280 280" fill="none" xmlns="http://www.w3.org/2000/svg">
<g filter="url(#filter0_d_318_31)">
<path d="M197.335 193.936C196.785 212.113 191.765 229.876 182.716 245.656C161.454 253.969 138.227 255.913 115.877 251.249C93.5269 246.585 71.0662 233.56 54.9136 217.439C62.601 225.149 73.0397 229.493 83.9332 229.515C94.8266 229.536 105.283 225.234 113.001 217.555C120.719 209.875 125.067 199.447 125.089 188.565C125.111 177.683 120.804 167.238 113.117 159.528C113.281 159.692 113.445 159.856 113.615 160.014C134.442 180.567 164.505 194.031 193.78 193.992C194.963 193.992 196.157 193.975 197.335 193.936Z" fill="black"/>
<path d="M221.968 53.0586C214.279 45.475 203.907 41.2241 193.102 41.2272C182.296 41.2303 171.927 45.4872 164.242 53.0752C156.557 60.6633 152.174 70.9711 152.045 81.7648C151.915 92.5584 156.049 102.968 163.55 110.738C163.465 110.653 163.38 110.568 163.29 110.489C142.463 89.9315 114.353 78.4207 85.0743 78.4608C83.8857 78.4608 82.6972 78.4609 81.52 78.5174C82.0687 60.3366 87.0935 42.5709 96.1501 26.7914C117.409 18.4856 140.63 16.5466 162.974 21.2114C185.319 25.8763 205.819 36.9429 221.968 53.0586Z" fill="black"/>
<path d="M254.833 135.94V135.941C254.818 159.194 247.798 181.903 234.687 201.115C222.366 219.169 203.859 234.756 183.719 243.631C191.772 228.429 197.467 210.426 197.982 193.386C198.022 192.193 198.039 190.99 198.039 189.791C198.083 160.118 184.429 129.72 163.609 108.664C163.438 108.481 163.264 108.308 163.11 108.154L163.101 108.145L163.101 108.146L163.101 108.145L163.089 108.133L163.041 108.081L163.021 108.059L163 108.038L162.83 107.868L161.77 108.93L162.83 107.868L162.673 107.712C155.532 100.213 151.62 90.2147 151.778 79.8657C151.935 69.5106 156.155 59.6307 163.53 52.3509C170.904 45.0711 180.844 40.973 191.213 40.9385C201.578 40.9039 211.543 44.9335 218.965 52.1604C229.758 62.9194 240.24 77.6329 246.048 91.6443C251.869 105.687 254.854 120.741 254.833 135.94Z" stroke="black" stroke-width="3"/>
<path d="M124.64 190.061V190.058C124.651 179.629 120.524 169.62 113.161 162.225L113.158 162.222M124.64 190.061L114.221 161.164L113.158 162.222M124.64 190.061C124.644 197.881 122.325 205.527 117.977 212.03C113.629 218.534 107.447 223.603 100.213 226.595C92.9795 229.588 85.0196 230.369 77.3411 228.841C69.6627 227.312 62.611 223.542 57.0785 218.009L57.0784 218.008C43.4864 204.416 33.4943 187.658 28.0029 169.245C22.5115 150.833 21.6934 131.345 25.6223 112.537C29.5511 93.7303 38.1034 76.1954 50.5084 61.5135C62.0075 47.9038 76.6475 36.8285 92.9661 29.6875M124.64 190.061L92.9661 29.6875M113.158 162.222L113.053 162.117L113.045 162.109L112.728 161.787C112.625 161.69 112.526 161.589 112.431 161.485C91.5944 140.399 79.9263 111.951 79.9633 82.3205C79.9633 81.1151 79.9824 79.9151 80.0205 78.7207C80.5287 61.721 85.0682 44.7652 92.9661 29.6875M113.158 162.222L92.9661 29.6875M92.9661 29.6875C93.6962 29.368 94.4297 29.0564 95.1664 28.7528C86.8342 44.036 82.0393 61.3827 81.5199 78.7662C81.4821 79.9459 81.4633 81.1313 81.4633 82.3224C81.4268 111.57 92.9489 139.65 113.525 160.457C113.604 160.546 113.687 160.631 113.774 160.711L92.9661 29.6875Z" stroke="black" stroke-width="3"/>
</g>
<defs>
<filter id="filter0_d_318_31" x="0.678223" y="0.729492" width="278.655" height="278.999" filterUnits="userSpaceOnUse" color-interpolation-filters="sRGB">
<feFlood flood-opacity="0" result="BackgroundImageFix"/>
<feColorMatrix in="SourceAlpha" type="matrix" values="0 0 0 0 0 0 0 0 0 0 0 0 0 0 0 0 0 0 127 0" result="hardAlpha"/>
<feOffset dx="1" dy="4"/>
<feGaussianBlur stdDeviation="11"/>
<feComposite in2="hardAlpha" operator="out"/>
<feColorMatrix type="matrix" values="0 0 0 0 0 0 0 0 0 0 0 0 0 0 0 0 0 0 0.5 0"/>
<feBlend mode="normal" in2="BackgroundImageFix" result="effect1_dropShadow_318_31"/>
<feBlend mode="normal" in="SourceGraphic" in2="effect1_dropShadow_318_31" result="shape"/>
</filter>
</defs>
</svg>
